# xmcd CD database file
#
# Track frame offsets:
#	150
#	12128
#	29988
#	43421
#	53179
#	67513
#	79897
#	93631
#	109117
#	121360
#	136284
#	154713
#	165561
#	185588
#	204457
#	218042
#	231028
#	241692
#	252500
#	263758
#	278279
#	300865
#	319149
#	339349
#
# Disc length: 4656 seconds
#
# Revision: 1
# Processed by: cddbd v1.5.2PL0 Copyright (c) Steve Scherf et al.
# Submitted via: CDex 1.51
#
DISCID=45122e18
DTITLE=Various Artist - ZM-TPMH-Disc-4
DYEAR=1900
DGENRE=Blues
TTITLE0=Roy Orbison - Falling
TTITLE1=Neil Diamond - Forever In Blue Jeans
TTITLE2=Tom Jones - Funny Famillar Forgotten Feelings
TTITLE3=Cliff Richard - Gee Whiz It's You
TTITLE4=Neil Diamond - Girl,You'll Be A Woman
TTITLE5=Elvis Presley - Good Luck Charm
TTITLE6=Cliff Richard - Goodbye Sam,Hello Samantha
TTITLE7=Elton John - Goodbye Yellow Brick Road
TTITLE8=Roy Orbison - Goodnight
TTITLE9=Tom Jones - Green Green Grass Of Home
TTITLE10=Rod Stewart - Have I Told You latley
TTITLE11=Elis Presley - Heartbreak Hotel
TTITLE12=Neil Diamond - Heartlight
TTITLE13=Neil Diamond - Hello Again 
TTITLE14=Tom Jones - Help Yourself
TTITLE15=Neil Diamond - Hey Louise
TTITLE16=Cliff Richard - High Class Baby
TTITLE17=Elvis Presley - His Latest Flame
TTITLE18=Elvis Presley - Hound Dog
TTITLE19=Cliff Richard - I Could Easily Fall (in love with you)
TTITLE20=Rod Stewart - I Don't Want To talk About It
TTITLE21=Roy Orbison - I Drove All Night
TTITLE22=Billy Joel - I Go To Extremes
TTITLE23=Elvis Presley - I Got Stung
EXTD=
EXTT0=
EXTT1=
EXTT2=
EXTT3=
EXTT4=
EXTT5=
EXTT6=
EXTT7=
EXTT8=
EXTT9=
EXTT10=
EXTT11=
EXTT12=
EXTT13=
EXTT14=
EXTT15=
EXTT16=
EXTT17=
EXTT18=
EXTT19=
EXTT20=
EXTT21=
EXTT22=
EXTT23=
PLAYORDER=
